<?xml version="1.0" encoding="utf-8"?>
<!-- Generator: Adobe Illustrator 25.4.1, SVG Export Plug-In . SVG Version: 6.00 Build 0)  -->
<svg version="1.1" id="Layer_1" xmlns="http://www.w3.org/2000/svg" xmlns:xlink="http://www.w3.org/1999/xlink" x="0px" y="0px"
	 viewBox="0 0 200 200" style="enable-background:new 0 0 200 200;" xml:space="preserve">
<style type="text/css">
	.st0{fill:#CBD5E0;}
	.st1{fill:#4A5568;}
</style>
<rect class="st0" width="200" height="200"/>
<g>
	<path class="st1" d="M96.2,54.7v4.7H85.3v28.7c0,3.2-0.8,4.8-3.5,5.7c-2.7,0.8-7.5,0.8-14.7,0.8c-0.3-1.5-1.1-3.5-1.9-4.9
		c3.6,0.2,7,0.2,9.4,0.2c5.2,0,5.4,0,5.4-1.8V59.3H27.8v-4.7H96.2z M62.8,36c-0.3,0.7-0.6,1.4-1,2c10,3.2,22.5,8.1,29.7,11.2
		L87.7,53c-6.6-3.2-18.4-7.9-28.4-11.2c-4.6,5.4-12.5,8.9-26.9,10.8c-0.4-1.2-1.5-3-2.3-4c16-2,23.4-5.8,27-12.6H31.7v-4.5h27.2
		c0.6-2.2,1-4.6,1.3-7.3l6.5,0.5c0,0.5-0.6,0.9-1.4,1.1c-0.3,2-0.6,3.9-1.1,5.7h28.4V36H62.8z M65.6,85.3H41.4v5.1h-4.9V65.8h29
		V85.3z M60.7,70H41.4v11.1h19.2V70z"/>
	<path class="st1" d="M154.8,85.3c0,2.8,0.5,3.2,2.6,3.2h7.1c2.3,0,2.7-2.3,2.9-13.8c1.2,1,3.3,2,4.8,2.3
		c-0.5,12.5-1.7,16.3-7.3,16.3h-8.2c-5.5,0-7.2-1.7-7.2-8.1v-37l-18.2,0.5c-1.7,17.9-7,35.5-24.7,45.7c-0.8-1.3-2.5-2.9-3.9-3.8
		c16.4-9,21.6-24.9,23.2-41.8l-20.7,0.5l-0.2-5.1l21.3-0.5c0.5-6.5,0.4-13,0.5-19.4l7.2,0.4c-0.1,0.7-0.7,1.1-1.8,1.3
		c-0.1,5.7-0.1,11.6-0.5,17.6l19.1-0.5l0.8-0.5l3.6,0.8l-0.3,1.3V85.3z"/>
	<path class="st1" d="M57.9,109.5v27.8h-22v38.6h-5v-66.4H57.9z M53.1,113.7H35.9v7.2h17.2V113.7z M35.9,132.9h17.2V125H35.9V132.9z
		 M93.3,109.5v59.1c0,6.9-2.6,7.1-17.2,7.1c-0.2-1.4-1.1-3.8-1.9-5.3c3.2,0.2,6.3,0.2,8.7,0.2c4.9,0,5.4,0,5.4-2v-31.3H65.3v-27.8
		H93.3z M88.3,113.7h-18v7.2h18V113.7z M70.3,133h18v-8h-18V133z"/>
	<path class="st1" d="M139.6,114.4h29.6V132h-5.1v-13h-53.6v13h-5v-17.6h29v-9l6.7,0.5c-0.1,0.5-0.5,0.9-1.5,1.1V114.4z
		 M156.2,145.1h-17c-0.2,2-0.7,4.5-1.2,6.9h24.6v23.5h-5.2v-2.6h-39.7v2.9h-5.1V152h20.6c0.4-2.2,0.7-4.6,0.9-6.9h-16.1v-19.5h38.2
		V145.1z M157.4,168.3v-11.8h-39.7v11.8H157.4z M122.8,129.9v10.9h28.4v-10.9H122.8z"/>
</g>
</svg>
